<svg viewBox="0 0 200 200" xmlns="http://www.w3.org/2000/svg">
  <path fill="#0066FF" d="M46,-81.2C59.1,-72.2,68.7,-58.7,73.9,-44.5C79,-30.2,79.7,-15.1,78.4,-0.7C77.1,13.6,73.9,27.2,68,40.1C62,53,53.3,65.2,41.6,72.8C29.8,80.4,14.9,83.4,-0.6,84.5C-16.2,85.7,-32.3,84.8,-43.5,76.9C-54.7,68.9,-60.9,53.8,-69,39.8C-77.1,25.8,-87.1,12.9,-88.7,-0.9C-90.3,-14.8,-83.5,-29.5,-74.7,-42.2C-65.8,-54.8,-54.8,-65.3,-42,-74.5C-29.2,-83.6,-14.6,-91.5,1,-93.1C16.5,-94.8,33,-90.2,46,-81.2Z" transform="translate(100 100)" />
</svg>