<svg viewBox="0 0 200 200" xmlns="http://www.w3.org/2000/svg">
  <path fill="#0066FF" d="M45.2,-76.1C57.7,-71.1,66.3,-57.2,68.4,-43C70.5,-28.8,66.2,-14.4,65.7,-0.3C65.2,13.9,68.6,27.7,62.9,35.6C57.1,43.5,42.3,45.5,30.3,49.3C18.3,53.1,9.1,58.7,-1.6,61.4C-12.3,64.1,-24.6,64,-37.3,60.6C-50,57.2,-63,50.6,-71.8,39.9C-80.5,29.3,-84.9,14.6,-81.3,2.1C-77.7,-10.4,-65.9,-20.9,-58.5,-33.7C-51,-46.6,-47.7,-61.8,-38.7,-68.8C-29.7,-75.9,-14.8,-74.7,0.8,-76C16.4,-77.4,32.7,-81.2,45.2,-76.1Z" transform="translate(100 100)" />
</svg>